<!-- Generator: Adobe Illustrator 16.0.4, SVG Export Plug-In . SVG Version: 6.00 Build 0)  -->
<svg version="1.1" id="Layer_1" xmlns="http://www.w3.org/2000/svg" xmlns:xlink="http://www.w3.org/1999/xlink" x="0px" y="0px"
	 width="100px" height="100px" viewBox="-25 -25 100 100" enable-background="new -25 -25 100 100" xml:space="preserve" class="arrow2">
<g>

		<image overflow="visible" opacity="0.75" width="86" height="39" xlink:href="assets/img/AFCBFFC0A7C14340.png"  transform="matrix(1 0 0 1 -16.5 20.5)">
	</image>
	<g>
		<path fill="#008BAB" d="M60.798,22.894c-0.941-1.635-3.033-2.195-4.668-1.252L28.331,37.69c-1.326,0.705-2.458,1.186-3.456,1.186
			c-0.997,0-2.289-0.48-3.455-1.184L-6.381,21.642c-1.635-0.943-3.725-0.383-4.669,1.252c-0.943,1.635-0.384,3.725,1.251,4.668
			l32.644,18.848c0.587,0.426,1.296,0.654,2.017,0.652c0.73,0.008,1.448-0.221,2.044-0.652l32.643-18.848
			C61.183,26.618,61.743,24.528,60.798,22.894z"/>
	</g>
</g>
<g>

		<image overflow="visible" opacity="0.75" width="86" height="38" xlink:href="assets/img/AFCBFFC0A7C14341.png"  transform="matrix(1 0 0 1 -16.5 3.5)">
	</image>
	<g>
		<path fill="#008BAB" d="M60.798,5.315c-0.941-1.635-3.033-2.195-4.668-1.252l-27.799,16.05c-1.326,0.705-2.458,1.185-3.456,1.185
			c-0.997,0-2.289-0.479-3.455-1.184L-6.381,4.063c-1.635-0.943-3.725-0.383-4.669,1.252c-0.943,1.635-0.384,3.725,1.251,4.669
			l32.644,18.847c0.587,0.426,1.296,0.654,2.017,0.652c0.73,0.008,1.448-0.221,2.044-0.652L59.548,9.984
			C61.183,9.04,61.743,6.95,60.798,5.315z"/>
	</g>
</g>
</svg>
