<?xml version="1.0" encoding="utf-8"?>
<!-- Generator: Adobe Illustrator 16.0.4, SVG Export Plug-In . SVG Version: 6.00 Build 0)  -->
<!DOCTYPE svg PUBLIC "-//W3C//DTD SVG 1.1//EN" "http://www.w3.org/Graphics/SVG/1.1/DTD/svg11.dtd">
<svg version="1.1" id="Layer_4" xmlns="http://www.w3.org/2000/svg" xmlns:xlink="http://www.w3.org/1999/xlink" x="0px" y="0px" width="4000px" height="2163px" viewBox="0 0 4000 2162.715" enable-background="new 0 0 4000 2162.715" xml:space="preserve" class="wave">
  <g>
    <polygon fill="#FFFFFF" points="3996.801,176.36 2784.16,487.465 1290.719,166.799 3.2,448.106 3.2,2118.137 3996.801,2118.137"/>
    <path fill="#0F3B63" d="M1999.199,575.575C1041.542,254.389,121.907,575.973,3.2,620.418v1.363 c117.077-31.326,1014.717-246.48,2036.919,218.586c992.383,451.408,1828.078-384.379,1828.078-384.379 S3015.791,916.43,1999.199,575.575z"/>
    <path fill="#0F3B63" d="M3996.801,137.514c-408.357,140.625-1155.559,299.756-2007.387,13.094 C1164.357-127.021,422.137,173.167,3.2,417.7v95.898c422.224-143.562,1176.759-296.045,2039.448,5.904 c849.912,297.432,1561.332-13.605,1954.152-266.703V137.514z"/>
  </g>
</svg>
